<?xml version="1.0" encoding="UTF-8" standalone="no" ?>
<!DOCTYPE svg PUBLIC "-//W3C//DTD SVG 1.1//EN" "http://www.w3.org/Graphics/SVG/1.1/DTD/svg11.dtd">
<svg xmlns="http://www.w3.org/2000/svg" xmlns:xlink="http://www.w3.org/1999/xlink" version="1.1" width="1080" height="500" viewBox="0 0 1080 500" xml:space="preserve">
<desc>Created with Fabric.js 5.2.4</desc>
<defs>
</defs>
<rect x="0" y="0" width="100%" height="100%" fill="transparent"></rect>
<g transform="matrix(0 0 0 0 0 0)" id="6fc0ea83-e6cb-42d4-875d-f957a22439b8"  >
</g>
<g transform="matrix(1 0 0 1 540 250)" id="a9a9e9f6-f36a-405f-a8d4-914752c6fc66"  >
<rect style="stroke: none; stroke-width: 1; stroke-dasharray: none; stroke-linecap: butt; stroke-dashoffset: 0; stroke-linejoin: miter; stroke-miterlimit: 4; fill: rgb(255,255,255); fill-rule: nonzero; opacity: 1; visibility: hidden;" vector-effect="non-scaling-stroke"  x="-540" y="-250" rx="0" ry="0" width="1080" height="500" />
</g>
<g transform="matrix(1.66 0 0 1.66 521.36 250)"  >
<path style="stroke: none; stroke-width: 0; stroke-dasharray: none; stroke-linecap: butt; stroke-dashoffset: 0; stroke-linejoin: miter; stroke-miterlimit: 4; fill: rgb(13,13,89); fill-rule: nonzero; opacity: 0.89;" vector-effect="non-scaling-stroke"  transform=" translate(-273.29, -164.72)" d="M 277.61 80.51 L 287.24 135.12 L 255.22 140.77 L 240.98 60.000000000000014 L 214.57 60.000000000000014 L 219.98 90.67000000000002 L 132.85999999999999 106.03000000000002 C 99.24999999999999 111.96000000000001 76.71999999999998 144.12 82.64999999999998 177.74 L 95.08999999999997 248.3 C 96.44999999999997 256.01 99.19999999999997 263.12 103.01999999999998 269.45 L 261.2 269.45 C 269.59 258.90999999999997 273.61 244.97 271.09 230.69 L 265.4 198.4 L 178.54999999999998 213.71 L 172.89999999999998 181.69 L 291.77 160.73 L 303.10999999999996 225.04 C 305.84999999999997 240.54999999999998 303.93999999999994 255.82 298.42999999999995 269.45 L 331.5899999999999 269.45 L 431.2199999999999 251.88 C 453.3399999999999 247.98 468.1599999999999 226.81 464.25999999999993 204.69 C 460.35999999999996 182.57 439.18999999999994 167.75 417.06999999999994 171.65 L 323.0299999999999 188.23000000000002 L 317.37999999999994 156.21 L 411.41999999999996 139.63 C 433.53999999999996 135.73 448.35999999999996 114.56 444.46 92.44 C 441.58 76.11 429.28 63.76 414.14 59.989999999999995 L 393.94 59.989999999999995 L 277.62 80.5 Z" stroke-linecap="round" />
</g>
<g transform="matrix(NaN NaN NaN NaN 0 0)"  >
<g style=""   >
</g>
</g>
<g transform="matrix(NaN NaN NaN NaN 0 0)"  >
<g style=""   >
</g>
</g>
<g transform="matrix(NaN NaN NaN NaN 0 0)"  >
<g style=""   >
</g>
</g>
<g transform="matrix(NaN NaN NaN NaN 0 0)"  >
<g style=""   >
</g>
</g>
<g transform="matrix(NaN NaN NaN NaN 0 0)"  >
<g style=""   >
</g>
</g>
<g transform="matrix(NaN NaN NaN NaN 0 0)"  >
<g style=""   >
</g>
</g>
</svg>