<?xml version="1.0" encoding="UTF-8"?>
<svg id="Layer_1" data-name="Layer 1" xmlns="http://www.w3.org/2000/svg" viewBox="0 0 340.36 205.28">
  <defs>
    <style>
      .cls-1 {
        fill: #0D0D59;
      }
    </style>
  </defs>
  <path class="cls-1" d="M281.54,205.28h-95.92v-30h95.92c15.89,0,28.82-12.93,28.82-28.82s-12.93-28.82-28.82-28.82h-75.92v-30h75.92c15.89,0,28.82-12.93,28.82-28.82s-12.93-28.82-28.82-28.82h-90.92v42.64h-30V0h120.92c32.43,0,58.82,26.39,58.82,58.82,0,16.83-7.12,32.63-19.64,43.82,12.52,11.19,19.64,26.99,19.64,43.82,0,32.43-26.39,58.82-58.82,58.82Zm-90.92-5h90.92c29.68,0,53.82-24.14,53.82-53.82,0-16.31-7.31-31.58-20.07-41.88l-2.41-1.94,2.41-1.94c12.75-10.3,20.07-25.56,20.07-41.88,0-29.68-24.14-53.82-53.82-53.82h-115.92v62.64h20V25h95.92c18.65,0,33.82,15.17,33.82,33.82s-15.17,33.82-33.82,33.82h-70.92v20h70.92c18.65,0,33.82,15.17,33.82,33.82s-15.17,33.82-33.82,33.82h-90.92v20Z"/>
  <path class="cls-1" d="M125.69,205.28h-50.6C33.69,205.28,0,171.59,0,130.18v-55.09C0,33.69,33.69,0,75.09,0h70.52V30H75.09c-24.87,0-45.09,20.23-45.09,45.09v55.09c0,24.87,20.23,45.09,45.09,45.09h50.6c19.26,0,34.93-15.67,34.93-34.93v-22.71H92.81v-30h97.81v52.71c0,35.8-29.13,64.93-64.93,64.93ZM75.09,5C36.44,5,5,36.44,5,75.09v55.09c0,38.65,31.44,70.09,70.09,70.09h50.6c33.04,0,59.93-26.88,59.93-59.93v-47.71H97.81v20h67.81v27.71c0,22.02-17.91,39.93-39.93,39.93h-50.6c-27.62,0-50.09-22.47-50.09-50.09v-55.09c0-27.62,22.47-50.09,50.09-50.09h65.52V5H75.09Z"/>
</svg>