<svg width="342" height="427" viewBox="0 0 342 427" fill="none" xmlns="http://www.w3.org/2000/svg">
<path d="M87.0041 351.442L91.9791 346.684L171.463 417.018L250.831 345.871L255.922 350.63L171.347 427L87.0041 351.442Z" fill="#0D0D59"/>
<path d="M20.1313 291.437C8.44587 280.991 1.50406 265.555 1.50406 250.234L0 76.2541L170.537 226.557L342 76.1381L340.496 250.118C339.802 265.671 332.629 280.991 320.943 291.553L295.49 314.766L290.631 310.123L315.158 288.303C326.612 277.393 332.397 264.394 332.397 250.35L333.554 93.6638L170.653 237.003L8.44587 93.4316L9.60284 249.538C9.60284 264.046 16.0819 278.322 27.0731 287.607L51.6008 310.007L46.5102 314.882L20.247 291.553L20.1313 291.437Z" fill="#0D0D59"/>
<path d="M171.463 9.51726L91.7476 79.1558L86.5412 74.6293L171.347 0L256.037 74.3971L250.368 79.2718L171.463 9.51726Z" fill="#0D0D59"/>
</svg>
