<svg width="14" height="17" viewBox="0 0 14 17" fill="none" xmlns="http://www.w3.org/2000/svg">
<path d="M11.4715 8.95029C11.4639 7.65482 12.0508 6.67848 13.2361 5.95856C12.5732 5.00881 11.5702 4.48644 10.2482 4.38577C8.9964 4.28699 7.62685 5.11518 7.12538 5.11518C6.59542 5.11518 5.38353 4.41996 4.42998 4.41996C2.46209 4.45035 0.370728 5.98895 0.370728 9.11934C0.370728 10.0444 0.539784 10.9999 0.877897 11.9838C1.32998 13.2793 2.95976 16.4534 4.65982 16.4021C5.54879 16.3812 6.17753 15.7714 7.33433 15.7714C8.45694 15.7714 9.03819 16.4021 10.0297 16.4021C11.745 16.3774 13.219 13.492 13.6483 12.1928C11.348 11.1081 11.4715 9.01677 11.4715 8.95029ZM9.47508 3.15678C10.4381 2.01328 10.3508 0.972348 10.3223 0.598145C9.47128 0.647532 8.48733 1.1775 7.92698 1.82903C7.30964 2.52805 6.94683 3.39232 7.02471 4.36677C7.94407 4.43705 8.78366 3.96408 9.47508 3.15678Z" fill="white"/>
</svg>
