<svg width="17" height="17" viewBox="0 0 17 17" fill="none" xmlns="http://www.w3.org/2000/svg">
<path d="M14.804 7.2695C14.886 7.70883 14.9307 8.16817 14.9307 8.6475C14.9307 12.3968 12.4213 15.0628 8.63133 15.0628C7.76944 15.0631 6.91593 14.8935 6.1196 14.5638C5.32326 14.2341 4.59969 13.7507 3.99024 13.1413C3.38079 12.5318 2.89739 11.8082 2.56768 11.0119C2.23797 10.2156 2.0684 9.36206 2.06866 8.50017C2.0684 7.63827 2.23797 6.78477 2.56768 5.98843C2.89739 5.19209 3.38079 4.46853 3.99024 3.85907C4.59969 3.24962 5.32326 2.76623 6.1196 2.43652C6.91593 2.10681 7.76944 1.93724 8.63133 1.9375C10.4033 1.9375 11.884 2.5895 13.02 3.64817L11.17 5.49817V5.4935C10.4813 4.8375 9.60733 4.50083 8.63133 4.50083C6.466 4.50083 4.706 6.33017 4.706 8.49617C4.706 10.6615 6.466 12.4948 8.63133 12.4948C10.596 12.4948 11.9333 11.3715 12.208 9.82883H8.63133V7.2695H14.8047H14.804Z" fill="#0E0E12"/>
</svg>
